HIERARCHY
ROOT joint_Root
{
	OFFSET 0.0 0.0 0.0
	CHANNELS 6 Xposition Yposition Zposition Zrotation Xrotation Yrotation 
	JOINT Hips
	{
		OFFSET -17.1583 93.1646 452.98
		CHANNELS 6 Xposition Yposition Zposition Zrotation Xrotation Yrotation 
		JOINT Spine
		{
			OFFSET 15.7357 0.0 0.0
			CHANNELS 6 Xposition Yposition Zposition Zrotation Xrotation Yrotation 
			JOINT Chest
			{
				OFFSET 8.98455 -0.406207 0.0
				CHANNELS 6 Xposition Yposition Zposition Zrotation Xrotation Yrotation 
				JOINT Neck
				{
					OFFSET 16.3773 0.0 0.0
					CHANNELS 6 Xposition Yposition Zposition Zrotation Xrotation Yrotation 
					JOINT Head
					{
						OFFSET 6.45672 0.0 0.0
						CHANNELS 6 Xposition Yposition Zposition Zrotation Xrotation Yrotation 
						End Site
						{
							OFFSET 0.0 0.0 0.0
						}
					}
				}
				JOINT Shoulder_L
				{
					OFFSET 12.9942 -0.242716 4.98039
					CHANNELS 6 Xposition Yposition Zposition Zrotation Xrotation Yrotation 
					JOINT UpperArm_L
					{
						OFFSET 5.34809 0.0 0.0
						CHANNELS 6 Xposition Yposition Zposition Zrotation Xrotation Yrotation 
						JOINT LowerArm_L
						{
							OFFSET 24.3286 1.87007e-05 0.0
							CHANNELS 6 Xposition Yposition Zposition Zrotation Xrotation Yrotation 
							JOINT Hand_L
							{
								OFFSET 22.2916 0.0 0.0
								CHANNELS 6 Xposition Yposition Zposition Zrotation Xrotation Yrotation 
								End Site
								{
									OFFSET 0.0 0.0 0.0
								}
							}
						}
					}
				}
				JOINT Shoulder_R
				{
					OFFSET 12.9945 -0.242716 -4.98039
					CHANNELS 6 Xposition Yposition Zposition Zrotation Xrotation Yrotation 
					JOINT UpperArm_R
					{
						OFFSET -5.34813 0.0 0.0
						CHANNELS 6 Xposition Yposition Zposition Zrotation Xrotation Yrotation 
						JOINT LowerArm_R
						{
							OFFSET -24.3289 0.000322201 0.0
							CHANNELS 6 Xposition Yposition Zposition Zrotation Xrotation Yrotation 
							JOINT Hand_R
							{
								OFFSET -22.2915 -0.000108084 0.0
								CHANNELS 6 Xposition Yposition Zposition Zrotation Xrotation Yrotation 
								End Site
								{
									OFFSET 0.0 0.0 0.0
								}
							}
						}
					}
				}
			}
		}
		JOINT UpperLeg_L
		{
			OFFSET -2.19248 -6.46944 0.0
			CHANNELS 6 Xposition Yposition Zposition Zrotation Xrotation Yrotation 
			JOINT LowerLeg_L
			{
				OFFSET 39.0811 0.0 -1.23785e-05
				CHANNELS 6 Xposition Yposition Zposition Zrotation Xrotation Yrotation 
				JOINT Foot_L
				{
					OFFSET 40.9854 0.0 -1.26872e-05
					CHANNELS 6 Xposition Yposition Zposition Zrotation Xrotation Yrotation 
					JOINT Toes_L
					{
						OFFSET 11.7543 0.0 0.0
						CHANNELS 6 Xposition Yposition Zposition Zrotation Xrotation Yrotation 
						End Site
						{
							OFFSET 0.0 0.0 0.0
						}
					}
				}
			}
		}
		JOINT UpperLeg_R
		{
			OFFSET -2.19251 6.46944 0.0
			CHANNELS 6 Xposition Yposition Zposition Zrotation Xrotation Yrotation 
			JOINT LowerLeg_R
			{
				OFFSET -39.0811 -0.00228153 -0.0401928
				CHANNELS 6 Xposition Yposition Zposition Zrotation Xrotation Yrotation 
				JOINT Foot_R
				{
					OFFSET -40.9854 0.0 0.0
					CHANNELS 6 Xposition Yposition Zposition Zrotation Xrotation Yrotation 
					JOINT Toes_R
					{
						OFFSET -11.7543 0.0 0.0
						CHANNELS 6 Xposition Yposition Zposition Zrotation Xrotation Yrotation 
						End Site
						{
							OFFSET 0.0 0.0 0.0
						}
					}
				}
			}
		}
	}
}
MOTION
Frames:	6
Frame Time:	0.0333333
0.000000 0.000000 0.000000 0.000000 0.000000 -0.000000 -0.036876 92.796000 -1.447430 85.522100 -4.116890 1.307370 15.735700 0.000005 -0.000001 83.938900 87.088800 -81.366500 8.984550 -0.406207 -0.000000 -1.952280 -0.832649 5.129810 16.377300 -0.000001 -0.000001 3.269200 4.233920 0.491483 6.456720 -0.000001 -0.000000 0.663944 6.871190 -7.153460 12.994200 -0.242716 4.980390 -92.699900 8.312450 -71.934200 5.348090 -0.000007 -0.000001 -74.524400 15.660900 2.881780 24.328600 0.000019 0.000005 14.200600 25.192600 -30.730700 22.291600 -0.000001 0.000005 -3.144540 5.009000 7.127570 12.994500 -0.242716 -4.980390 89.061600 2.968540 -72.449600 -5.348130 -0.000001 -0.000004 -71.808100 20.968800 -2.079360 -24.328900 0.000322 -0.000009 2.858370 6.700510 -23.174200 -22.291500 -0.000108 -0.000004 3.286830 5.268360 0.943649 -2.192480 -6.469440 -0.000000 -175.544000 -2.152380 -3.875690 39.081100 -0.000007 -0.000012 0.261236 -0.631785 22.465100 40.985400 -0.000006 -0.000013 2.796530 7.205780 -72.578300 11.754300 -0.000000 0.000003 -0.000018 0.167922 -9.765980 -2.192510 6.469440 -0.000001 -174.516000 6.293270 -178.844000 -39.081100 -0.002282 -0.040193 0.032852 -0.123375 13.456000 -40.985400 0.000008 0.000006 -0.737164 3.664000 -68.360700 -11.754300 -0.000006 -0.000006 -0.009738 0.269334 -5.631600
0.000000 0.000000 0.000000 0.000000 0.000000 -0.000000 -0.075461 92.787000 -1.450770 85.528900 -4.145430 1.287960 15.735700 0.000005 -0.000001 84.517700 87.089100 -81.930000 8.984550 -0.406207 -0.000000 -1.948080 -0.775283 5.161300 16.377300 -0.000001 -0.000001 3.196000 4.162730 0.607948 6.456720 -0.000001 -0.000000 0.493443 6.849110 -7.126870 12.994200 -0.242716 4.980390 -92.728300 8.369330 -71.871500 5.348090 -0.000007 -0.000001 -74.277500 14.615800 2.893460 24.328600 0.000019 0.000005 14.526300 24.876900 -31.630400 22.291600 -0.000001 0.000005 -3.148190 4.999900 7.321560 12.994500 -0.242716 -4.980390 89.056700 2.960700 -72.319700 -5.348130 -0.000001 -0.000004 -71.413400 19.921800 -1.796440 -24.328900 0.000322 -0.000009 3.163760 6.825350 -24.949400 -22.291500 -0.000108 -0.000004 2.684320 5.250890 1.410890 -2.192480 -6.469440 -0.000000 -175.522000 -2.178240 -3.938390 39.081100 -0.000007 -0.000012 0.262743 -0.633515 22.526200 40.985400 -0.000006 -0.000013 2.772090 7.217160 -72.543100 11.754300 -0.000000 0.000003 0.000081 0.166247 -9.833980 -2.192510 6.469440 -0.000001 -174.462000 6.194690 -178.889000 -39.081100 -0.002282 -0.040193 0.034760 -0.130854 13.505000 -40.985400 0.000008 0.000006 -0.558061 3.543130 -68.419600 -11.754300 -0.000006 -0.000006 -0.009863 0.270281 -5.592890
0.000000 0.000000 0.000000 0.000000 0.000000 -0.000000 -0.128505 92.790900 -1.456110 85.526100 -4.105080 1.324310 15.735700 0.000005 -0.000001 84.630300 87.058100 -82.015100 8.984550 -0.406207 -0.000000 -1.885060 -0.770595 5.216830 16.377300 -0.000001 -0.000001 3.156200 4.115800 0.679868 6.456720 -0.000001 -0.000000 0.264009 6.831760 -7.049160 12.994200 -0.242716 4.980390 -92.758900 8.407540 -71.758600 5.348090 -0.000007 -0.000001 -73.980500 13.122000 2.961140 24.328600 0.000019 0.000005 15.270300 24.642700 -33.215600 22.291600 -0.000001 0.000005 -3.227870 5.004690 7.219630 12.994500 -0.242716 -4.980390 89.058500 2.943690 -72.254400 -5.348130 -0.000001 -0.000004 -70.903800 18.697800 -1.229660 -24.328900 0.000322 -0.000009 3.657750 6.942510 -27.878400 -22.291500 -0.000108 -0.000004 1.623710 5.231910 1.907620 -2.192480 -6.469440 -0.000000 -175.480000 -2.110910 -3.895530 39.081100 -0.000007 -0.000012 0.262152 -0.632344 22.518100 40.985400 -0.000006 -0.000013 2.724570 7.204710 -72.612000 11.754300 -0.000000 0.000003 -0.000048 0.168435 -9.745140 -2.192510 6.469440 -0.000001 -174.427000 6.143480 -178.839000 -39.081100 -0.002282 -0.040193 0.033445 -0.125698 13.471900 -40.985400 0.000008 0.000006 -0.630762 3.480860 -68.403700 -11.754300 -0.000006 -0.000006 -0.009827 0.270009 -5.604000
0.000000 0.000000 0.000000 0.000000 0.000000 -0.000000 -0.193840 92.772900 -1.458860 85.537100 -4.032570 1.362280 15.735700 0.000005 -0.000001 84.601400 87.022500 -81.945200 8.984550 -0.406207 -0.000000 -1.813860 -0.782037 5.298930 16.377300 -0.000001 -0.000001 3.137670 4.032130 0.782996 6.456720 -0.000001 -0.000000 -0.052502 6.803170 -7.066250 12.994200 -0.242716 4.980390 -92.818400 8.506600 -71.592300 5.348090 -0.000007 -0.000001 -73.606900 11.209400 3.213300 24.328600 0.000019 0.000005 16.794200 24.478200 -36.068000 22.291600 -0.000001 0.000005 -3.031350 5.006040 7.190570 12.994500 -0.242716 -4.980390 89.082500 2.842070 -72.100300 -5.348130 -0.000001 -0.000004 -70.378600 17.143800 -0.384007 -24.328900 0.000322 -0.000009 4.500110 7.218960 -32.062500 -22.291500 -0.000108 -0.000004 0.404057 5.206470 2.558880 -2.192480 -6.469440 -0.000000 -175.441000 -2.051370 -3.928330 39.081100 -0.000007 -0.000012 0.263803 -0.632777 22.631700 40.985400 -0.000006 -0.000013 2.699250 7.265800 -72.605600 11.754300 -0.000000 0.000003 0.000019 0.167311 -9.790800 -2.192510 6.469440 -0.000001 -174.354000 6.135480 -178.842000 -39.081100 -0.002282 -0.040193 0.036869 -0.138962 13.567800 -40.985400 0.000008 0.000006 -0.374302 3.319000 -68.523400 -11.754300 -0.000006 -0.000006 -0.009793 0.269748 -5.614650
0.000000 0.000000 0.000000 0.000000 0.000000 -0.000000 -0.269249 92.772200 -1.467320 85.559800 -3.918250 1.389540 15.735700 0.000005 -0.000001 84.702600 86.991300 -82.010600 8.984550 -0.406207 -0.000000 -1.750390 -0.778832 5.371000 16.377300 -0.000001 -0.000001 3.130090 3.958510 0.955568 6.456720 -0.000001 -0.000000 -0.353168 6.800930 -7.028960 12.994200 -0.242716 4.980390 -92.865100 8.552700 -71.400900 5.348090 -0.000007 -0.000001 -73.324500 8.600270 3.705670 24.328600 0.000019 0.000005 19.683000 24.581500 -40.691800 22.291600 -0.000001 0.000005 -2.469160 5.006940 7.172410 12.994500 -0.242716 -4.980390 89.077400 2.822060 -71.887500 -5.348130 -0.000001 -0.000004 -69.619400 15.422100 0.645479 -24.328900 0.000322 -0.000009 5.720750 7.550920 -37.318700 -22.291500 -0.000108 -0.000004 -0.898146 5.183120 3.142480 -2.192480 -6.469440 -0.000000 -175.402000 -2.017940 -3.923920 39.081100 -0.000007 -0.000012 0.261346 -0.626818 22.633800 40.985400 -0.000006 -0.000013 2.662820 7.351490 -72.602800 11.754300 -0.000000 0.000003 0.000049 0.166792 -9.811880 -2.192510 6.469440 -0.000001 -174.301000 6.041900 -178.830000 -39.081100 -0.002282 -0.040193 0.037081 -0.139804 13.571500 -40.985400 0.000008 0.000006 -0.378519 3.125560 -68.509500 -11.754300 -0.000006 -0.000006 -0.009587 0.268196 -5.678120
0.000000 0.000000 0.000000 0.000000 0.000000 -0.000000 -0.354766 92.762200 -1.476070 85.579700 -3.773380 1.444760 15.735700 0.000005 -0.000001 84.520400 86.944400 -81.775200 8.984550 -0.406207 -0.000000 -1.657570 -0.809026 5.477390 16.377300 -0.000001 -0.000001 3.164680 3.897970 1.185080 6.456720 -0.000001 -0.000000 -0.704037 6.843690 -7.042630 12.994200 -0.242716 4.980390 -92.879900 8.518070 -71.241500 5.348090 -0.000007 -0.000001 -73.399500 4.792920 4.625830 24.328600 0.000019 0.000005 22.416300 22.958600 -46.600900 22.291600 -0.000001 0.000005 -1.440760 4.986010 7.614030 12.994500 -0.242716 -4.980390 89.099600 2.718400 -71.665600 -5.348130 -0.000001 -0.000004 -68.909600 13.145700 1.791080 -24.328900 0.000322 -0.000009 7.469230 7.903060 -43.637400 -22.291500 -0.000108 -0.000004 -1.996110 5.140890 4.161890 -2.192480 -6.469440 -0.000000 -175.354000 -1.884450 -3.929150 39.081100 -0.000007 -0.000012 0.262689 -0.627902 22.703000 40.985400 -0.000006 -0.000013 2.605650 7.395690 -72.619900 11.754300 -0.000000 0.000003 0.000089 0.166119 -9.839180 -2.192510 6.469440 -0.000001 -174.236000 6.062720 -178.813000 -39.081100 -0.002282 -0.040193 0.038778 -0.146069 13.639800 -40.985400 0.000008 0.000006 -0.294908 2.930900 -68.588200 -11.754300 -0.000006 -0.000006 -0.009955 0.270970 -5.564700
